<?xml version="1.0" encoding="utf-8"?>
<!-- Generator: Adobe Illustrator 18.0.0, SVG Export Plug-In . SVG Version: 6.00 Build 0)  -->
<!DOCTYPE svg PUBLIC "-//W3C//DTD SVG 1.1//EN" "http://www.w3.org/Graphics/SVG/1.1/DTD/svg11.dtd">
<svg version="1.1" id="Layer_1" xmlns="http://www.w3.org/2000/svg" xmlns:xlink="http://www.w3.org/1999/xlink" x="0px" y="0px"
	 viewBox="0 0 30 30" enable-background="new 0 0 30 30" xml:space="preserve">
<path fill="#FFFFFF" d="M15.5,3.2C8.7,3.2,3.2,8.7,3.2,15.5s5.5,12.2,12.2,12.2s12.2-5.5,12.2-12.2S22.3,3.2,15.5,3.2z M23.6,8.9
	C25,10.7,26,13,26,15.4c-0.4-0.1-3.8-0.8-7.3-0.4l-0.3-0.5c-0.2-0.5-0.5-1-0.7-1.5C21.6,11.4,23.4,9.2,23.6,8.9z M15.5,5
	c2.6,0,5.1,1,7,2.6C22.3,8,20.7,10,17,11.4c-1.7-3.1-3.6-5.7-3.9-6.1C13.8,5.1,14.7,5,15.5,5z M11.1,6.1c0.3,0.4,2.2,3,3.9,6
	c-4.9,1.3-9.2,1.3-9.7,1.3C6,10.1,8.2,7.4,11.1,6.1z M5,15.5v-0.3c0.5,0,5.6,0.1,10.7-1.5c0.3,0.6,0.6,1.2,0.8,1.8l-0.4,0.1
	c-5.5,1.8-8.3,6.5-8.6,6.9C6.1,20.7,5,18.2,5,15.5z M15.5,26c-2.4,0-4.6-0.8-6.4-2.2c0.2-0.4,2.3-4.5,8.2-6.5h0.1
	c1.5,3.8,2.1,7,2.3,7.9C18.3,25.7,16.9,26,15.5,26z M21.3,24.2c-0.1-0.7-0.7-3.7-2.1-7.4c3.3-0.6,6.1,0.4,6.5,0.5
	C25.4,20.1,23.7,22.6,21.3,24.2z"/>
</svg>
