<svg xmlns="http://www.w3.org/2000/svg" xmlns:xlink="http://www.w3.org/1999/xlink" version="1.1" id="Layer_1" x="0px" y="0px" viewBox="0 0 80 80" enable-background="new 0 0 80 80" xml:space="preserve">
<rect fill="#BF6122" width="80" height="80"/>
<path fill="#FFFFFF" d="M40 27c-7.2 0-13 5.8-13 13s5.8 13 13 13s13-5.8 13-13S47.2 27 40 27z M48.6 33c1.5 1.9 2.5 4.3 2.5 6.9 c-0.4-0.1-4-0.8-7.7-0.4L43.1 39c-0.2-0.5-0.5-1.1-0.7-1.6C46.5 35.7 48.4 33.3 48.6 33z M40 28.9c2.8 0 5.4 1.1 7.4 2.8 c-0.2 0.3-1.9 2.5-5.8 4c-1.8-3.3-3.8-6.1-4.1-6.5C38.2 29 39.1 28.9 40 28.9z M35.3 30c0.3 0.4 2.3 3.2 4.1 6.4 c-5.2 1.4-9.8 1.4-10.3 1.4C29.9 34.3 32.2 31.4 35.3 30z M28.9 40l0-0.3c0.5 0 5.9 0.1 11.4-1.6c0.3 0.6 0.6 1.3 0.9 1.9l-0.4 0.1 C35 42 32 47 31.7 47.4C30 45.5 28.9 42.9 28.9 40z M40 51.1c-2.6 0-4.9-0.9-6.8-2.3c0.2-0.4 2.4-4.8 8.7-6.9l0.1 0 c1.6 4 2.2 7.4 2.4 8.4C43 50.8 41.5 51.1 40 51.1z M46.2 49.2c-0.1-0.7-0.7-3.9-2.2-7.9c3.5-0.6 6.5 0.4 6.9 0.5 C50.5 44.9 48.7 47.5 46.2 49.2z"/>
</svg>
