<?xml version="1.0" encoding="utf-8"?>
<!-- Generator: Adobe Illustrator 18.0.0, SVG Export Plug-In . SVG Version: 6.00 Build 0)  -->
<!DOCTYPE svg PUBLIC "-//W3C//DTD SVG 1.1//EN" "http://www.w3.org/Graphics/SVG/1.1/DTD/svg11.dtd">
<svg version="1.1" id="Layer_1" xmlns="http://www.w3.org/2000/svg" xmlns:xlink="http://www.w3.org/1999/xlink" x="0px" y="0px"
	 viewBox="0 0 30 30" enable-background="new 0 0 30 30" xml:space="preserve">
<path fill="#FFFFFF" d="M16,4.3C9.5,4.3,4.3,9.5,4.3,16S9.5,27.7,16,27.7S27.7,22.5,27.7,16S22.5,4.3,16,4.3z M11.7,19
	c-1.6,0-3-1.3-3-3s1.3-3,3-3s3,1.4,3,3S13.3,19,11.7,19z M20.3,19c-1.6,0-3-1.3-3-3s1.4-3,3-3s3,1.4,3,3S21.9,19,20.3,19z"/>
</svg>
