<svg xmlns="http://www.w3.org/2000/svg" xmlns:xlink="http://www.w3.org/1999/xlink" version="1.1" id="Layer_1" x="0px" y="0px" viewBox="0 0 80 80" enable-background="new 0 0 80 80" xml:space="preserve">
<rect fill="#BF6122" width="80" height="80"/>
<path fill="#FFFFFF" d="M40 27c-7.2 0-13 5.8-13 13s5.8 13 13 13s13-5.8 13-13C53 32.8 47.2 27 40 27z M35.2 43.3 c-1.8 0-3.3-1.5-3.3-3.3s1.5-3.3 3.3-3.3s3.3 1.5 3.3 3.3S37 43.3 35.2 43.3z M44.8 43.3c-1.8 0-3.3-1.5-3.3-3.3s1.5-3.3 3.3-3.3 c1.8 0 3.3 1.5 3.3 3.3S46.6 43.3 44.8 43.3z"/>
</svg>
