<?xml version="1.0" encoding="utf-8"?>
<!-- Generator: Adobe Illustrator 18.0.0, SVG Export Plug-In . SVG Version: 6.00 Build 0)  -->
<!DOCTYPE svg PUBLIC "-//W3C//DTD SVG 1.1//EN" "http://www.w3.org/Graphics/SVG/1.1/DTD/svg11.dtd">
<svg version="1.1" id="Layer_1" xmlns="http://www.w3.org/2000/svg" xmlns:xlink="http://www.w3.org/1999/xlink" x="0px" y="0px"
	 viewBox="0 0 30 30" enable-background="new 0 0 30 30" xml:space="preserve">
<path fill="#FFFFFF" d="M28.3,8.3c-0.9,0.4-1.9,0.6-2.9,0.8c1.1-0.6,1.8-1.6,2.2-2.8c-1,0.5-2.1,1-3.2,1.3c-0.9-1-2.2-1.6-3.7-1.6
	c-2.8,0-5,2.2-5,5c0,0.4,0,0.8,0.1,1.2C11.6,12,7.9,10,5.4,6.9C4.9,7.6,4.7,8.5,4.7,9.4c0,1.7,0.9,3.3,2.2,4.2
	c-0.8,0-1.6-0.3-2.2-0.6v0.1c0,2.4,1.7,4.5,4,4.9c-0.4,0.1-0.9,0.2-1.3,0.2c-0.4,0-0.6,0-1-0.1c0.6,2,2.5,3.4,4.7,3.5
	c-1.7,1.4-3.9,2.2-6.3,2.2c-0.5,0-0.8,0-1.2-0.1c2.2,1.4,4.9,2.2,7.7,2.2c9.3,0,14.4-7.6,14.4-14.4V11C26.8,10.2,27.6,9.3,28.3,8.3z
	"/>
</svg>
